<?xml version="1.0" encoding="iso-8859-1"?>
<!-- Uploaded to: SVG Repo, www.svgrepo.com, Generator: SVG Repo Mixer Tools -->
<svg fill="#000000" height="800px" width="800px" version="1.1" id="Layer_1" xmlns="http://www.w3.org/2000/svg" xmlns:xlink="http://www.w3.org/1999/xlink" 
	 viewBox="0 0 512 512" xml:space="preserve">
<g>
	<g>
		<path d="M473.347,120.673c-2.858-4.581-8.886-5.977-13.466-3.12c-4.581,2.857-5.977,8.887-3.12,13.466
			c23.349,37.424,35.69,80.641,35.69,124.979c0,130.38-106.072,236.452-236.451,236.452c-51.615,0-100.652-16.33-141.81-47.226
			c-4.316-3.241-10.444-2.368-13.684,1.95c-3.24,4.318-2.368,10.444,1.95,13.684C147.024,494.315,200.118,512,256.001,512
			C397.16,512,512,397.159,512,255.999C512,207.999,498.634,161.203,473.347,120.673z"/>
	</g>
</g>
<g>
	<g>
		<path d="M233.256,349.394h-78.709l49.449-49.449c25.171-25.171,39.034-58.637,39.034-94.234c0-33.595-27.332-60.927-60.927-60.927
			s-60.927,27.332-60.927,60.927c0,5.398,4.376,9.774,9.774,9.774s9.774-4.376,9.774-9.774c0-22.816,18.562-41.378,41.378-41.378
			s41.378,18.562,41.378,41.378c0,30.376-11.828,58.933-33.307,80.412l-66.135,66.135c-2.795,2.795-3.632,7-2.119,10.651
			c1.513,3.653,5.077,6.034,9.03,6.034h102.305c5.398,0,9.774-4.376,9.774-9.774S238.654,349.394,233.256,349.394z"/>
	</g>
</g>
<g>
	<g>
		<path d="M390.048,282.277H362.93v-15.812c0-5.398-4.376-9.774-9.774-9.774s-9.774,4.376-9.774,9.774v15.812h-55.109l55.109-92.286
			v43.892c0,5.398,4.376,9.774,9.774,9.774s9.774-4.376,9.774-9.774v-79.325c0-0.031-0.009-0.06-0.01-0.09
			c-0.034-3.292-1.719-6.49-4.753-8.302c-4.637-2.768-10.636-1.254-13.404,3.381L262.658,287.04
			c-1.804,3.02-1.845,6.777-0.108,9.836c1.736,3.06,4.982,4.95,8.5,4.95h72.331v57.343c0.001,5.398,4.378,9.774,9.776,9.774
			s9.774-4.376,9.774-9.774v-57.343h27.118c5.398,0,9.774-4.376,9.774-9.774S395.446,282.277,390.048,282.277z"/>
	</g>
</g>
<g>
	<g>
		<path d="M445.61,46.333c-0.129-5.397-4.621-9.656-10.004-9.54c-5.397,0.128-9.668,4.607-9.54,10.004l0.433,18.234
			c-19.696-17.629-41.857-32.009-66.149-42.867C327.438,7.457,292.33,0,256.001,0C114.841,0,0,114.841,0,256.001
			c0,69.315,27.255,134.222,76.743,182.766c1.903,1.866,4.374,2.797,6.843,2.797c2.534,0,5.064-0.979,6.978-2.93
			c3.781-3.854,3.721-10.043-0.133-13.822c-45.709-44.838-70.883-104.789-70.883-168.81c0-130.38,106.072-236.452,236.452-236.452
			c58.146,0,114.383,21.689,157.492,60.123l-19.21,0.455c-5.397,0.128-9.668,4.607-9.54,10.004c0.126,5.319,4.477,9.542,9.768,9.542
			c0.078,0,0.158,0,0.236-0.003l42.328-1.005c5.397-0.129,9.668-4.607,9.54-10.004L445.61,46.333z"/>
	</g>
</g>
</svg>