<?xml version="1.0" encoding="iso-8859-1"?>
<!-- Uploaded to: SVG Repo, www.svgrepo.com, Generator: SVG Repo Mixer Tools -->
<svg fill="#000000" height="800px" width="800px" version="1.1" id="Layer_1" xmlns="http://www.w3.org/2000/svg" xmlns:xlink="http://www.w3.org/1999/xlink" 
	 viewBox="0 0 512 512" xml:space="preserve">
<g>
	<g>
		<path d="M326.839,0H97.876c-5.794,0-10.491,4.697-10.491,10.491v168.376c0,45.039,17.539,87.383,49.386,119.229
			c2.048,2.048,4.733,3.073,7.418,3.073s5.37-1.024,7.418-3.073c4.097-4.097,4.097-10.74,0-14.835
			c-27.883-27.885-43.24-64.959-43.24-104.393V20.982h54.036v85.675c0,3.903,2.165,7.482,5.622,9.293
			c3.455,1.81,7.632,1.554,10.841-0.667l19.601-13.571v65.976c0,5.794,4.697,10.491,10.491,10.491s10.491-4.697,10.491-10.491V81.69
			c0-3.903-2.165-7.482-5.622-9.293c-3.456-1.81-7.633-1.554-10.841,0.667l-19.601,13.571V20.982h143.455
			c5.794,0,10.491-4.697,10.491-10.491C337.33,4.697,332.633,0,326.839,0z"/>
	</g>
</g>
<g>
	<g>
		<path d="M414.126,0h-41.128c-5.794,0-10.491,4.697-10.491,10.491c0,5.794,4.697,10.491,10.491,10.491h30.637v157.885
			c0,81.406-66.229,147.634-147.634,147.634c-24.582,0-48.912-6.159-70.364-17.812c-5.093-2.768-11.46-0.88-14.226,4.21
			c-2.765,5.09-0.88,11.46,4.21,14.226c21.456,11.656,45.422,18.502,69.888,20.029v143.865h-76.893
			c-5.794,0-10.491,4.697-10.491,10.491c0,5.794,4.697,10.491,10.491,10.491h174.768c5.794,0,10.491-4.697,10.491-10.491
			c0-5.794-4.697-10.491-10.491-10.491h-76.895V347.146c88.106-5.436,158.124-78.828,158.124-168.279V10.491
			C424.616,4.697,419.919,0,414.126,0z"/>
	</g>
</g>
</svg>