<?xml version="1.0" encoding="iso-8859-1"?>
<!-- Uploaded to: SVG Repo, www.svgrepo.com, Generator: SVG Repo Mixer Tools -->
<!DOCTYPE svg PUBLIC "-//W3C//DTD SVG 1.1//EN" "http://www.w3.org/Graphics/SVG/1.1/DTD/svg11.dtd">
<svg fill="#000000" version="1.1" id="Capa_1" xmlns="http://www.w3.org/2000/svg" xmlns:xlink="http://www.w3.org/1999/xlink" 
	 width="800px" height="800px" viewBox="0 0 434.637 434.637"
	 xml:space="preserve">
<g>
	<g>
		<path d="M289.758,90.09c18.834-30.187,19.429-67.413,1.341-83.127c-18.083-15.696-48.008-3.948-66.831,26.238
			c-2.687,4.329-5.002,8.8-6.944,13.335c-1.953-4.527-4.25-9.006-6.952-13.335C191.545,3.015,161.613-8.74,143.545,6.963
			c-18.098,15.706-17.499,52.931,1.328,83.127c5.388,8.65,11.692,15.774,18.359,21.188v212.1
			c-6.667,5.408-12.982,12.527-18.359,21.186c-18.827,30.193-19.426,67.41-1.328,83.116c13.683,11.897,34.175,8.013,51.493-7.684
			c-0.894-1.985-1.422-4.164-1.422-6.479v-46.747c0-8.719,7.076-15.798,15.798-15.798h15.803c8.719,0,15.798,7.079,15.798,15.798
			v46.747c0,2.315-0.523,4.494-1.422,6.479c17.311,15.696,37.8,19.581,51.501,7.693c18.082-15.706,17.488-52.923-1.346-83.126
			c-5.383-8.648-11.689-15.777-18.357-21.186V111.268C278.064,105.856,284.375,98.732,289.758,90.09z M180.635,95.381l1.429-4.377
			c0,0-1.666-1.209-3.727-2.709c-2.062-1.485-1.661-2.702,0.868-2.702h4.613c0,0,0.632-1.957,1.422-4.385
			c0.79-2.417,2.062-2.417,2.836,0l1.432,4.385c0,0,2.062,0,4.606,0c2.526,0,2.93,1.209,0.876,2.702l-3.737,2.709
			c0,0,0.64,1.96,1.439,4.377c0.779,2.427-0.254,3.169-2.315,1.676l-3.723-2.709c0,0-1.665,1.216-3.719,2.709
			S179.853,97.798,180.635,95.381z M205.466,320.041h-23.701v-23.699h23.701V320.041z M205.466,281.854h-23.701v-23.699h23.701
			V281.854z M205.466,243.663h-23.701v-23.699h23.701V243.663z M205.466,205.477h-23.701v-23.702h23.701V205.477z M205.466,167.288
			h-23.701v-23.702h23.701V167.288z M205.466,129.099h-23.701v-23.699h23.701V129.099z M217.316,84.646c0,0-3.633,2.653-8.097,5.908
			c-4.489,3.255-6.741,1.62-5.032-3.648l3.105-9.544c0,0-3.628-2.638-8.115-5.893c-4.479-3.255-3.618-5.893,1.912-5.893h10.042
			c0,0,1.381-4.268,3.103-9.544c1.707-5.261,4.481-5.261,6.195,0l3.103,9.544c0,0,4.488,0,10.023,0s6.403,2.638,1.925,5.893
			l-8.125,5.893c0,0,1.392,4.273,3.113,9.544c1.706,5.268-0.544,6.903-5.022,3.648L217.316,84.646z M252.867,320.041h-23.699
			v-23.699h23.699V320.041z M252.867,281.854h-23.699v-23.699h23.699V281.854z M252.867,243.663h-23.699v-23.699h23.699V243.663z
			 M252.867,205.477h-23.699v-23.702h23.699V205.477z M252.867,167.288h-23.699v-23.702h23.699V167.288z M252.867,129.099h-23.699
			v-23.699h23.699V129.099z M256.31,88.294l-3.737,2.709c0,0,0.64,1.96,1.437,4.377c0.782,2.427-0.254,3.169-2.315,1.676
			l-3.717-2.709c0,0-1.666,1.216-3.723,2.709c-2.062,1.5-3.087,0.751-2.305-1.676l1.427-4.377c0,0-1.666-1.209-3.728-2.709
			c-2.062-1.485-1.66-2.702,0.868-2.702h4.616c0,0,0.629-1.957,1.422-4.385c0.787-2.417,2.062-2.417,2.833,0l1.433,4.385
			c0,0,2.062,0,4.605,0C257.96,85.593,258.361,86.81,256.31,88.294z"/>
	</g>
</g>
</svg>