<?xml version="1.0" encoding="iso-8859-1"?>
<!-- Uploaded to: SVG Repo, www.svgrepo.com, Generator: SVG Repo Mixer Tools -->
<svg fill="#000000" height="800px" width="800px" version="1.1" id="Layer_1" xmlns="http://www.w3.org/2000/svg" xmlns:xlink="http://www.w3.org/1999/xlink" 
	 viewBox="0 0 512 512" xml:space="preserve">
<g>
	<g>
		<path d="M183.329,83.802c-10.835-49.753-53.072-72.024-90.125-72.024c-0.003,0,0.001,0-0.001,0
			c-37.051,0-79.292,22.273-90.126,72.025C1.034,93.177,0,102.831,0,112.499c0,56.99,36.124,107.932,89.89,126.765
			c1.072,0.376,2.192,0.563,3.313,0.563s2.241-0.188,3.313-0.564c53.765-18.832,89.89-69.775,89.89-126.765
			C186.405,102.83,185.371,93.175,183.329,83.802z M93.203,219.126C49.3,202.212,20.044,159.804,20.044,112.499
			c0-8.237,0.881-16.456,2.616-24.43c9.043-41.516,43.653-56.246,70.543-56.246c26.89,0,61.499,14.73,70.54,56.245
			c1.736,7.974,2.616,16.193,2.616,24.43C166.361,159.803,137.105,202.21,93.203,219.126z"/>
	</g>
</g>
<g>
	<g>
		<path d="M93.203,59.717c-25.419,0-46.101,20.682-46.101,46.101s20.682,46.101,46.101,46.101c25.419,0,46.101-20.681,46.101-46.101
			C139.303,80.398,118.622,59.717,93.203,59.717z M93.203,131.874c-14.368,0-26.056-11.689-26.056-26.056
			c0-14.368,11.689-26.056,26.056-26.056c14.368,0,26.056,11.689,26.056,26.056C119.259,120.184,107.57,131.874,93.203,131.874z"/>
	</g>
</g>
<g>
	<g>
		<path d="M485.201,344.197c-10.835-49.754-53.072-72.025-90.125-72.025c-37.053,0-79.293,22.273-90.128,72.025
			c-2.041,9.373-3.076,19.028-3.076,28.696c0,56.99,36.124,107.932,89.89,126.765c1.073,0.376,2.193,0.564,3.313,0.564
			c1.12,0,2.241-0.188,3.313-0.564c12.882-4.511,24.977-10.959,35.948-19.164c4.432-3.314,5.34-9.595,2.026-14.028
			c-3.315-4.432-9.595-5.34-14.028-2.024c-8.387,6.271-17.542,11.334-27.258,15.08c-43.904-16.916-73.158-59.323-73.158-106.628
			c0-8.237,0.881-16.456,2.616-24.43c9.043-41.515,43.653-56.246,70.543-56.246s61.499,14.731,70.54,56.245
			c1.736,7.974,2.616,16.195,2.616,24.431c0,24.174-7.455,47.273-21.558,66.801c-3.241,4.487-2.23,10.752,2.256,13.992
			c4.486,3.239,10.753,2.232,13.994-2.257c16.586-22.966,25.354-50.123,25.354-78.537
			C488.277,363.224,487.242,353.57,485.201,344.197z"/>
	</g>
</g>
<g>
	<g>
		<path d="M395.074,320.11c-25.419,0-46.099,20.682-46.099,46.101c0,25.42,20.68,46.101,46.099,46.101
			c25.419,0,46.101-20.68,46.101-46.101C441.175,340.792,420.493,320.11,395.074,320.11z M395.074,392.267
			c-14.367,0-26.055-11.689-26.055-26.056c0-14.367,11.689-26.056,26.055-26.056c14.368,0.001,26.056,11.69,26.056,26.056
			C421.131,380.579,409.442,392.267,395.074,392.267z"/>
	</g>
</g>
<g>
	<g>
		<path d="M334.941,480.175H157.342c-29.841,0-54.117-24.276-54.117-54.117c0-29.841,24.276-54.117,54.117-54.117H281.5
			c5.536,0,10.022-4.487,10.022-10.022c0-5.535-4.486-10.022-10.022-10.022H157.342c-40.893,0-74.162,33.268-74.162,74.162
			c0,40.893,33.268,74.162,74.162,74.162h177.599c5.536,0,10.022-4.487,10.022-10.022
			C344.963,484.663,340.477,480.175,334.941,480.175z"/>
	</g>
</g>
<g>
	<g>
		<path d="M437.84,219.782H277.435c-5.536,0-10.022,4.487-10.022,10.022c0,5.535,4.486,10.022,10.022,10.022H437.84
			c29.839,0,54.116,24.276,54.116,54.117v3.836c0,6.401-1.104,12.661-3.281,18.608c-1.903,5.198,0.768,10.954,5.967,12.857
			c1.137,0.417,2.3,0.613,3.444,0.613c4.088,0,7.927-2.519,9.413-6.58c2.987-8.161,4.502-16.74,4.502-25.498v-3.837
			C512,253.051,478.733,219.782,437.84,219.782z"/>
	</g>
</g>
<g>
	<g>
		<path d="M244.027,219.782h-90.692c-5.536,0-10.022,4.487-10.022,10.022c0,5.535,4.486,10.022,10.022,10.022h90.692
			c5.536,0,10.022-4.487,10.022-10.022C254.05,224.27,249.564,219.782,244.027,219.782z"/>
	</g>
</g>
</svg>