<?xml version="1.0" encoding="iso-8859-1"?>
<!-- Uploaded to: SVG Repo, www.svgrepo.com, Generator: SVG Repo Mixer Tools -->
<svg fill="#000000" height="800px" width="800px" version="1.1" id="Layer_1" xmlns="http://www.w3.org/2000/svg" xmlns:xlink="http://www.w3.org/1999/xlink" 
	 viewBox="0 0 487.274 487.274" xml:space="preserve">
<g>
	<g>
		<path d="M243.637,487.274l-4.295-1.283c-2.32-0.693-57.486-17.632-114.242-74.089c-33.116-32.942-60.009-72.647-79.932-118.013
			C20.454,237.612,6.485,172.459,3.649,100.24L2.926,81.851l18.157,3.002c76.05,12.572,155.209-14.958,211.752-73.642L243.637,0
			l10.802,11.211c56.541,58.684,135.694,86.213,211.752,73.642l18.157-3.002l-0.723,18.389
			c-2.836,72.219-16.806,137.371-41.52,193.649c-19.923,45.366-46.815,85.071-79.932,118.013
			c-56.756,56.457-111.922,73.396-114.242,74.089L243.637,487.274z M34.573,116.806c7.68,113.54,45.708,207.526,110.504,272.646
			c42.794,43.008,85.172,61.256,98.561,66.283c13.389-5.027,55.767-23.274,98.561-66.283
			c64.796-65.119,102.824-159.105,110.504-272.646c-37.521,3.432-75.763-1.414-111.648-14.249
			c-35.577-12.724-68.982-33.296-97.416-59.889c-28.434,26.593-61.839,47.164-97.416,59.889
			C110.337,115.391,72.09,120.234,34.573,116.806z"/>
	</g>
	<g>
		<polygon points="211.067,345.017 123.23,257.179 144.443,235.966 211.067,302.59 342.831,170.827 364.044,192.041 		"/>
	</g>
</g>
</svg>